<svg xmlns="http://www.w3.org/2000/svg" viewBox="0 0 48 32" fill="none">
  <rect width="48" height="32" rx="4" fill="#006FCF"/>
  <path d="M8 14h3l.5 1.2.5-1.2h3v4.5l-2.3-4.5h-2l-2.7 6h1.8l.4-1h2.4l.4 1h3.5v-4.7l2 4.7h1.3l2-4.7v4.7h1.6v-6h-2.5l-1.7 4-1.7-4h-2.5v5.2l-2.3-5.2h-2l-2.7 6h1.8l.4-1h2.4l.4 1H8v-6zm2.6 1.3l.7 1.7h-1.4l.7-1.7z" fill="#fff"/>
  <path d="M40 14v6h-1.6v-2.4h-2.6v2.4H34v-6h1.8v2.2h2.6V14H40zm-14 0l1.4 2.2L28.8 14H27v6h1.7v-3.7l1.7 2.5h.3l1.7-2.5V20H34v-6h-1.8l-1.4 2.2-1.4-2.2H27h-1z" fill="#fff"/>
</svg>
