<svg xmlns="http://www.w3.org/2000/svg" viewBox="0 0 512 512">
  <defs>
    <linearGradient id="bg-mask" x1="0%" y1="0%" x2="100%" y2="100%">
      <stop offset="0%" style="stop-color:#597B87"/>
      <stop offset="100%" style="stop-color:#183251"/>
    </linearGradient>
  </defs>
  <!-- Full background for maskable icon (safe zone is 80% center) -->
  <rect width="512" height="512" fill="url(#bg-mask)"/>
  <!-- Car icon - centered in safe zone (80% = 409px, offset 51px) -->
  <g transform="translate(131, 180)" fill="white">
    <!-- Car body -->
    <path d="M220 70H30c-13.3 0-25 10.7-25 24v72c0 13.3 11.7 24 25 24h190c13.3 0 25-10.7 25-24v-72c0-13.3-11.7-24-25-24z"/>
    <!-- Car roof -->
    <path d="M208 24H42c-6.6 0-12.3 4.1-14.5 10.1L5 84h240l-22.5-49.9c-2.2-6-7.9-10.1-14.5-10.1z" opacity="0.9"/>
    <!-- Wheels -->
    <circle cx="65" cy="142" r="30" fill="#183251"/>
    <circle cx="65" cy="142" r="18" fill="white"/>
    <circle cx="185" cy="142" r="30" fill="#183251"/>
    <circle cx="185" cy="142" r="18" fill="white"/>
  </g>
  <!-- Plus symbol -->
  <g transform="translate(310, 120)">
    <circle cx="36" cy="36" r="36" fill="white"/>
    <rect x="30" y="18" width="12" height="36" rx="3" fill="#597B87"/>
    <rect x="18" y="30" width="36" height="12" rx="3" fill="#597B87"/>
  </g>
</svg>
