<svg xmlns="http://www.w3.org/2000/svg" viewBox="0 0 512 512">
  <defs>
    <linearGradient id="bg" x1="0%" y1="0%" x2="100%" y2="100%">
      <stop offset="0%" style="stop-color:#597B87"/>
      <stop offset="100%" style="stop-color:#183251"/>
    </linearGradient>
  </defs>
  <!-- Background -->
  <rect width="512" height="512" rx="96" fill="url(#bg)"/>
  <!-- Car icon -->
  <g transform="translate(96, 160)" fill="white">
    <!-- Car body -->
    <path d="M288 96H32c-17.7 0-32 14.3-32 32v96c0 17.7 14.3 32 32 32h256c17.7 0 32-14.3 32-32v-96c0-17.7-14.3-32-32-32z"/>
    <!-- Car roof/windows -->
    <path d="M272 32H48c-8.8 0-16.4 5.5-19.4 13.5L0 112h320l-28.6-66.5c-3-8-10.6-13.5-19.4-13.5z" opacity="0.9"/>
    <!-- Wheels -->
    <circle cx="80" cy="192" r="40" fill="#183251"/>
    <circle cx="80" cy="192" r="24" fill="white"/>
    <circle cx="240" cy="192" r="40" fill="#183251"/>
    <circle cx="240" cy="192" r="24" fill="white"/>
    <!-- Headlights -->
    <rect x="280" y="112" width="24" height="16" rx="4" fill="#FFD700"/>
    <rect x="16" y="112" width="24" height="16" rx="4" fill="#FFD700"/>
  </g>
  <!-- Plus symbol -->
  <g transform="translate(340, 80)">
    <circle cx="48" cy="48" r="48" fill="white"/>
    <rect x="40" y="24" width="16" height="48" rx="4" fill="#597B87"/>
    <rect x="24" y="40" width="48" height="16" rx="4" fill="#597B87"/>
  </g>
</svg>
