<svg xmlns="http://www.w3.org/2000/svg" viewBox="0 0 48 32" fill="none">
  <rect width="48" height="32" rx="4" fill="#1A1F71"/>
  <path d="M19.5 21h-2.7l1.7-10h2.7l-1.7 10zm11.2-9.7c-.5-.2-1.4-.4-2.4-.4-2.7 0-4.6 1.4-4.6 3.4 0 1.5 1.4 2.3 2.4 2.8 1 .5 1.4.8 1.4 1.3 0 .7-.8 1-1.6 1-1.1 0-1.6-.2-2.5-.5l-.3-.2-.4 2.2c.6.3 1.8.5 3 .5 2.9 0 4.7-1.4 4.7-3.5 0-1.2-.7-2.1-2.3-2.8-.9-.5-1.5-.8-1.5-1.3 0-.4.5-.9 1.5-.9.9 0 1.5.2 2 .4l.2.1.4-2.1zm7.1-.2h-2.1c-.7 0-1.1.2-1.4.8l-4 9.1h2.8l.6-1.5h3.5l.3 1.5h2.5l-2.2-9.9zm-3.4 6.4l1.1-2.9.3-.9.2.8.6 3h-2.2zm-18.6-6.4l-2.6 6.8-.3-1.4c-.5-1.6-2-3.4-3.7-4.3l2.4 8.8h2.9l4.3-9.9h-3z" fill="#fff"/>
  <path d="M10.3 11h-4.5l-.1.2c3.4.8 5.7 2.9 6.6 5.4l-1-4.8c-.2-.7-.6-.8-1-.8z" fill="#F9A51A"/>
</svg>
